<svg xmlns="http://www.w3.org/2000/svg" width="12.893" height="16.108" viewBox="0 0 12.893 16.108">
  <g id="shopping-bag" transform="translate(-48.8)">
    <path id="Path_103" data-name="Path 103" d="M61.69,13.924,60.768,3.538a.444.444,0,0,0-.441-.405h-1.9a3.183,3.183,0,0,0-6.364,0h-1.9a.442.442,0,0,0-.441.405L48.8,13.924c0,.013,0,.026,0,.04a2.3,2.3,0,0,0,2.418,2.144h8.057a2.3,2.3,0,0,0,2.418-2.144A.16.16,0,0,0,61.69,13.924ZM55.247.889a2.3,2.3,0,0,1,2.293,2.243H52.954A2.3,2.3,0,0,1,55.247.889Zm4.029,14.33H51.218a1.419,1.419,0,0,1-1.528-1.235l.883-9.958h1.489V5.376a.445.445,0,1,0,.889,0V4.025h4.589V5.376a.445.445,0,1,0,.889,0V4.025h1.489l.886,9.958A1.421,1.421,0,0,1,59.275,15.219Z" fill="#323846"/>
  </g>
</svg>
